<svg xmlns="http://www.w3.org/2000/svg" xmlns:xlink="http://www.w3.org/1999/xlink" width="100" zoomAndPan="magnify" viewBox="0 0 75 74.999997" height="100" preserveAspectRatio="xMidYMid meet" version="1.0"><defs><clipPath id="7c6c33aef5"><path d="M 3.976562 3.976562 L 70.726562 3.976562 L 70.726562 70.726562 L 3.976562 70.726562 Z M 3.976562 3.976562 " clip-rule="nonzero"/></clipPath><clipPath id="f569edaf19"><path d="M 17.234375 11.515625 L 57.734375 11.515625 L 57.734375 63.265625 L 17.234375 63.265625 Z M 17.234375 11.515625 " clip-rule="nonzero"/></clipPath></defs><g clip-path="url(#7c6c33aef5)"><path fill="#1b87fa" d="M 71.019531 37.5 C 71.019531 38.597656 70.96875 39.691406 70.859375 40.785156 C 70.753906 41.878906 70.589844 42.960938 70.378906 44.039062 C 70.164062 45.117188 69.894531 46.179688 69.578125 47.230469 C 69.257812 48.28125 68.890625 49.3125 68.46875 50.328125 C 68.050781 51.34375 67.582031 52.332031 67.0625 53.300781 C 66.546875 54.269531 65.980469 55.210938 65.371094 56.125 C 64.761719 57.035156 64.109375 57.917969 63.410156 58.765625 C 62.714844 59.613281 61.980469 60.425781 61.203125 61.203125 C 60.425781 61.980469 59.613281 62.714844 58.765625 63.410156 C 57.917969 64.109375 57.035156 64.761719 56.125 65.371094 C 55.210938 65.980469 54.269531 66.546875 53.300781 67.0625 C 52.332031 67.582031 51.34375 68.050781 50.328125 68.46875 C 49.3125 68.890625 48.28125 69.257812 47.230469 69.578125 C 46.179688 69.894531 45.117188 70.164062 44.039062 70.375 C 42.960938 70.589844 41.878906 70.753906 40.785156 70.859375 C 39.691406 70.96875 38.597656 71.019531 37.5 71.019531 C 36.402344 71.019531 35.304688 70.96875 34.214844 70.859375 C 33.121094 70.753906 32.035156 70.589844 30.960938 70.375 C 29.882812 70.164062 28.820312 69.894531 27.769531 69.578125 C 26.71875 69.257812 25.6875 68.890625 24.671875 68.46875 C 23.65625 68.050781 22.664062 67.582031 21.699219 67.0625 C 20.730469 66.546875 19.789062 65.980469 18.875 65.371094 C 17.964844 64.761719 17.082031 64.109375 16.234375 63.410156 C 15.386719 62.714844 14.574219 61.980469 13.796875 61.203125 C 13.019531 60.425781 12.285156 59.613281 11.585938 58.765625 C 10.890625 57.917969 10.238281 57.035156 9.628906 56.125 C 9.015625 55.210938 8.453125 54.269531 7.9375 53.300781 C 7.417969 52.332031 6.949219 51.34375 6.53125 50.328125 C 6.109375 49.3125 5.738281 48.28125 5.421875 47.230469 C 5.101562 46.179688 4.835938 45.117188 4.621094 44.039062 C 4.40625 42.960938 4.246094 41.878906 4.140625 40.785156 C 4.03125 39.691406 3.976562 38.597656 3.976562 37.5 C 3.976562 36.402344 4.03125 35.304688 4.140625 34.214844 C 4.246094 33.121094 4.40625 32.035156 4.621094 30.960938 C 4.835938 29.882812 5.101562 28.820312 5.421875 27.769531 C 5.738281 26.71875 6.109375 25.6875 6.53125 24.671875 C 6.949219 23.65625 7.417969 22.664062 7.9375 21.699219 C 8.453125 20.730469 9.015625 19.789062 9.628906 18.875 C 10.238281 17.964844 10.890625 17.082031 11.585938 16.234375 C 12.285156 15.386719 13.019531 14.574219 13.796875 13.796875 C 14.574219 13.019531 15.386719 12.285156 16.234375 11.585938 C 17.082031 10.890625 17.964844 10.238281 18.875 9.628906 C 19.789062 9.015625 20.730469 8.453125 21.699219 7.9375 C 22.664062 7.417969 23.65625 6.949219 24.671875 6.53125 C 25.6875 6.109375 26.71875 5.738281 27.769531 5.421875 C 28.820312 5.101562 29.882812 4.835938 30.960938 4.621094 C 32.035156 4.40625 33.121094 4.246094 34.214844 4.140625 C 35.304688 4.03125 36.402344 3.976562 37.5 3.976562 C 38.597656 3.976562 39.691406 4.03125 40.785156 4.140625 C 41.878906 4.246094 42.960938 4.40625 44.039062 4.621094 C 45.117188 4.835938 46.179688 5.101562 47.230469 5.421875 C 48.28125 5.738281 49.3125 6.109375 50.328125 6.53125 C 51.34375 6.949219 52.332031 7.417969 53.300781 7.9375 C 54.269531 8.453125 55.210938 9.015625 56.125 9.628906 C 57.035156 10.238281 57.917969 10.890625 58.765625 11.585938 C 59.613281 12.285156 60.425781 13.019531 61.203125 13.796875 C 61.980469 14.574219 62.714844 15.386719 63.410156 16.234375 C 64.109375 17.082031 64.761719 17.964844 65.371094 18.875 C 65.980469 19.789062 66.546875 20.730469 67.0625 21.699219 C 67.582031 22.664062 68.050781 23.65625 68.46875 24.671875 C 68.890625 25.6875 69.257812 26.71875 69.578125 27.769531 C 69.894531 28.820312 70.164062 29.882812 70.378906 30.960938 C 70.589844 32.035156 70.753906 33.121094 70.859375 34.214844 C 70.96875 35.304688 71.019531 36.402344 71.019531 37.5 Z M 71.019531 37.5 " fill-opacity="1" fill-rule="nonzero"/></g><g clip-path="url(#f569edaf19)"><path fill="#ffffff" d="M 55.949219 26.566406 C 55.566406 25.875 55.203125 25.222656 54.9375 24.578125 C 54.652344 23.898438 54.4375 23.15625 54.207031 22.371094 C 53.695312 20.625 53.164062 18.816406 51.824219 17.472656 C 50.480469 16.132812 48.671875 15.601562 46.925781 15.089844 C 46.140625 14.859375 45.402344 14.644531 44.71875 14.363281 C 44.074219 14.09375 43.421875 13.734375 42.734375 13.347656 C 41.203125 12.5 39.472656 11.539062 37.496094 11.539062 C 35.515625 11.539062 33.785156 12.5 32.257812 13.347656 C 31.566406 13.730469 30.914062 14.09375 30.269531 14.363281 C 29.589844 14.644531 28.847656 14.859375 28.066406 15.089844 C 26.316406 15.601562 24.507812 16.132812 23.164062 17.472656 C 21.824219 18.816406 21.292969 20.625 20.78125 22.371094 C 20.554688 23.15625 20.335938 23.898438 20.054688 24.578125 C 19.785156 25.222656 19.425781 25.875 19.039062 26.566406 C 18.191406 28.09375 17.230469 29.824219 17.230469 31.804688 C 17.230469 33.78125 18.191406 35.511719 19.039062 37.039062 C 19.425781 37.730469 19.785156 38.382812 20.054688 39.027344 C 20.335938 39.707031 20.550781 40.449219 20.78125 41.234375 C 21.292969 42.980469 21.824219 44.789062 23.164062 46.132812 C 23.789062 46.757812 24.515625 47.203125 25.289062 47.554688 L 21.375 54.273438 C 20.960938 54.96875 20.910156 55.824219 21.246094 56.566406 C 21.582031 57.308594 22.261719 57.839844 23.0625 57.984375 L 27.269531 58.742188 L 30.476562 62.570312 C 30.949219 63.132812 31.648438 63.457031 32.378906 63.457031 C 32.441406 63.457031 32.503906 63.453125 32.566406 63.449219 C 33.359375 63.386719 34.074219 62.949219 34.488281 62.273438 L 37.613281 57.484375 L 40.492188 62.257812 C 40.902344 62.941406 41.625 63.386719 42.421875 63.449219 C 42.484375 63.453125 42.546875 63.457031 42.613281 63.457031 C 43.339844 63.457031 44.039062 63.132812 44.511719 62.570312 L 47.722656 58.742188 L 51.925781 57.984375 C 52.726562 57.839844 53.40625 57.308594 53.742188 56.566406 C 54.078125 55.824219 54.03125 54.96875 53.613281 54.273438 L 49.699219 47.554688 C 50.472656 47.203125 51.199219 46.757812 51.824219 46.132812 C 53.164062 44.789062 53.695312 42.980469 54.207031 41.234375 C 54.4375 40.449219 54.652344 39.707031 54.9375 39.027344 C 55.203125 38.382812 55.566406 37.730469 55.949219 37.039062 C 56.796875 35.511719 57.757812 33.78125 57.757812 31.804688 C 57.757812 29.824219 56.796875 28.09375 55.949219 26.566406 Z M 32.757812 61.164062 C 32.75 61.171875 32.742188 61.183594 32.738281 61.195312 C 32.640625 61.355469 32.488281 61.390625 32.410156 61.398438 C 32.328125 61.402344 32.175781 61.390625 32.054688 61.246094 L 28.605469 57.132812 C 28.449219 56.949219 28.234375 56.824219 28 56.78125 L 23.429688 55.957031 C 23.238281 55.925781 23.152344 55.792969 23.121094 55.71875 C 23.085938 55.640625 23.042969 55.492188 23.140625 55.328125 C 23.144531 55.324219 23.148438 55.316406 23.148438 55.3125 L 27.253906 48.273438 C 27.523438 48.355469 27.792969 48.4375 28.066406 48.515625 C 28.847656 48.746094 29.589844 48.960938 30.269531 49.246094 C 30.914062 49.511719 31.566406 49.875 32.257812 50.257812 C 32.730469 50.519531 33.21875 50.792969 33.734375 51.042969 L 36.433594 55.527344 Z M 51.839844 55.3125 C 51.839844 55.316406 51.84375 55.324219 51.847656 55.328125 C 51.945312 55.492188 51.902344 55.640625 51.871094 55.71875 C 51.835938 55.792969 51.75 55.925781 51.5625 55.957031 L 46.988281 56.78125 C 46.753906 56.824219 46.539062 56.949219 46.382812 57.132812 L 42.9375 61.246094 C 42.816406 61.390625 42.660156 61.402344 42.582031 61.398438 C 42.5 61.390625 42.351562 61.355469 42.253906 61.195312 L 36.722656 52.019531 C 36.976562 52.050781 37.234375 52.066406 37.496094 52.066406 C 39.472656 52.066406 41.203125 51.105469 42.734375 50.257812 C 43.421875 49.875 44.074219 49.511719 44.71875 49.246094 C 45.402344 48.960938 46.140625 48.746094 46.925781 48.515625 C 47.195312 48.4375 47.464844 48.355469 47.734375 48.273438 Z M 54.148438 36.042969 C 53.753906 36.753906 53.347656 37.488281 53.035156 38.238281 C 52.710938 39.023438 52.46875 39.851562 52.234375 40.65625 C 51.773438 42.226562 51.339844 43.707031 50.367188 44.675781 C 49.726562 45.320312 48.851562 45.730469 47.882812 46.066406 C 47.878906 46.066406 47.878906 46.066406 47.875 46.066406 C 47.386719 46.234375 46.871094 46.386719 46.347656 46.542969 C 45.542969 46.777344 44.714844 47.019531 43.929688 47.34375 C 43.179688 47.65625 42.445312 48.0625 41.734375 48.457031 C 40.296875 49.257812 38.9375 50.011719 37.496094 50.011719 C 36.050781 50.011719 34.691406 49.257812 33.253906 48.457031 C 32.546875 48.0625 31.808594 47.65625 31.058594 47.34375 C 30.273438 47.019531 29.445312 46.777344 28.644531 46.542969 C 28.117188 46.386719 27.605469 46.234375 27.113281 46.066406 C 27.113281 46.066406 27.109375 46.066406 27.105469 46.066406 C 26.136719 45.730469 25.265625 45.320312 24.621094 44.675781 C 23.652344 43.707031 23.214844 42.226562 22.757812 40.65625 C 22.523438 39.851562 22.277344 39.023438 21.953125 38.238281 C 21.640625 37.488281 21.234375 36.753906 20.839844 36.042969 C 20.042969 34.605469 19.289062 33.246094 19.289062 31.804688 C 19.289062 30.359375 20.042969 29 20.839844 27.5625 C 21.234375 26.851562 21.640625 26.117188 21.953125 25.367188 C 22.277344 24.582031 22.523438 23.753906 22.757812 22.949219 C 23.214844 21.382812 23.652344 19.898438 24.621094 18.929688 C 25.589844 17.957031 27.074219 17.523438 28.644531 17.066406 C 29.445312 16.828125 30.273438 16.585938 31.058594 16.261719 C 31.808594 15.949219 32.546875 15.542969 33.253906 15.148438 C 34.691406 14.347656 36.050781 13.59375 37.496094 13.59375 C 38.9375 13.59375 40.296875 14.347656 41.734375 15.148438 C 42.445312 15.542969 43.179688 15.949219 43.929688 16.261719 C 44.714844 16.585938 45.542969 16.828125 46.347656 17.066406 C 47.917969 17.523438 49.398438 17.957031 50.367188 18.929688 C 51.339844 19.898438 51.773438 21.382812 52.234375 22.949219 C 52.46875 23.753906 52.710938 24.582031 53.035156 25.367188 C 53.347656 26.117188 53.753906 26.851562 54.148438 27.5625 C 54.949219 29 55.703125 30.359375 55.703125 31.804688 C 55.703125 33.246094 54.949219 34.605469 54.148438 36.042969 Z M 54.148438 36.042969 " fill-opacity="1" fill-rule="nonzero"/></g><path fill="#ffffff" d="M 37.496094 17.507812 C 29.613281 17.507812 23.199219 23.921875 23.199219 31.804688 C 23.199219 39.683594 29.613281 46.097656 37.496094 46.097656 C 45.378906 46.097656 51.789062 39.683594 51.789062 31.804688 C 51.789062 23.921875 45.378906 17.507812 37.496094 17.507812 Z M 37.496094 44.042969 C 30.746094 44.042969 25.257812 38.550781 25.257812 31.804688 C 25.257812 25.054688 30.746094 19.566406 37.496094 19.566406 C 44.242188 19.566406 49.734375 25.054688 49.734375 31.804688 C 49.734375 38.550781 44.242188 44.042969 37.496094 44.042969 Z M 37.496094 44.042969 " fill-opacity="1" fill-rule="nonzero"/><path fill="#ffffff" d="M 43.992188 27.664062 L 40.441406 27.148438 L 38.851562 23.933594 C 38.597656 23.414062 38.074219 23.089844 37.496094 23.089844 C 36.914062 23.089844 36.394531 23.414062 36.136719 23.933594 L 34.546875 27.148438 L 31 27.664062 C 30.425781 27.75 29.957031 28.144531 29.777344 28.695312 C 29.597656 29.25 29.742188 29.84375 30.160156 30.25 L 32.726562 32.753906 L 32.121094 36.289062 C 32.023438 36.859375 32.253906 37.429688 32.722656 37.769531 C 33.195312 38.113281 33.804688 38.15625 34.320312 37.886719 L 37.496094 36.214844 L 40.667969 37.886719 C 40.894531 38.003906 41.136719 38.0625 41.375 38.0625 C 41.6875 38.0625 42 37.964844 42.265625 37.769531 C 42.734375 37.429688 42.964844 36.859375 42.867188 36.289062 L 42.261719 32.753906 L 44.828125 30.25 C 45.246094 29.84375 45.390625 29.25 45.214844 28.695312 C 45.035156 28.144531 44.566406 27.75 43.992188 27.664062 Z M 37.007812 24.84375 Z M 40.621094 31.480469 C 40.265625 31.828125 40.101562 32.328125 40.183594 32.820312 L 40.65625 35.554688 L 38.199219 34.261719 C 37.757812 34.03125 37.230469 34.03125 36.789062 34.261719 L 34.335938 35.554688 L 34.804688 32.820312 C 34.886719 32.328125 34.726562 31.828125 34.367188 31.480469 L 32.382812 29.542969 L 35.125 29.144531 C 35.621094 29.074219 36.046875 28.761719 36.265625 28.316406 L 37.496094 25.828125 L 38.722656 28.316406 C 38.941406 28.761719 39.367188 29.074219 39.863281 29.144531 L 42.605469 29.542969 Z M 40.621094 31.480469 " fill-opacity="1" fill-rule="nonzero"/></svg>