<svg xmlns="http://www.w3.org/2000/svg" xmlns:xlink="http://www.w3.org/1999/xlink" width="100" zoomAndPan="magnify" viewBox="0 0 75 74.999997" height="100" preserveAspectRatio="xMidYMid meet" version="1.0"><defs><clipPath id="7a2a56e610"><path d="M 3.976562 3.976562 L 70.726562 3.976562 L 70.726562 70.726562 L 3.976562 70.726562 Z M 3.976562 3.976562 " clip-rule="nonzero"/></clipPath><clipPath id="fc9b337683"><path d="M 25 17.089844 L 54 17.089844 L 54 40 L 25 40 Z M 25 17.089844 " clip-rule="nonzero"/></clipPath><clipPath id="b1356d579c"><path d="M 18.796875 24 L 56.296875 24 L 56.296875 57.589844 L 18.796875 57.589844 Z M 18.796875 24 " clip-rule="nonzero"/></clipPath></defs><g clip-path="url(#7a2a56e610)"><path fill="#ffffff" d="M 71.019531 37.5 C 71.019531 38.597656 70.96875 39.691406 70.859375 40.785156 C 70.753906 41.878906 70.589844 42.960938 70.378906 44.039062 C 70.164062 45.117188 69.894531 46.179688 69.578125 47.230469 C 69.257812 48.28125 68.890625 49.3125 68.46875 50.328125 C 68.050781 51.34375 67.582031 52.332031 67.0625 53.300781 C 66.546875 54.269531 65.980469 55.210938 65.371094 56.125 C 64.761719 57.035156 64.109375 57.917969 63.410156 58.765625 C 62.714844 59.613281 61.980469 60.425781 61.203125 61.203125 C 60.425781 61.980469 59.613281 62.714844 58.765625 63.410156 C 57.917969 64.109375 57.035156 64.761719 56.125 65.371094 C 55.210938 65.980469 54.269531 66.546875 53.300781 67.0625 C 52.332031 67.582031 51.34375 68.050781 50.328125 68.46875 C 49.3125 68.890625 48.28125 69.257812 47.230469 69.578125 C 46.179688 69.894531 45.117188 70.164062 44.039062 70.375 C 42.960938 70.589844 41.878906 70.753906 40.785156 70.859375 C 39.691406 70.96875 38.597656 71.019531 37.5 71.019531 C 36.402344 71.019531 35.304688 70.96875 34.214844 70.859375 C 33.121094 70.753906 32.035156 70.589844 30.960938 70.375 C 29.882812 70.164062 28.820312 69.894531 27.769531 69.578125 C 26.71875 69.257812 25.6875 68.890625 24.671875 68.46875 C 23.65625 68.050781 22.664062 67.582031 21.699219 67.0625 C 20.730469 66.546875 19.789062 65.980469 18.875 65.371094 C 17.964844 64.761719 17.082031 64.109375 16.234375 63.410156 C 15.386719 62.714844 14.574219 61.980469 13.796875 61.203125 C 13.019531 60.425781 12.285156 59.613281 11.585938 58.765625 C 10.890625 57.917969 10.238281 57.035156 9.628906 56.125 C 9.015625 55.210938 8.453125 54.269531 7.9375 53.300781 C 7.417969 52.332031 6.949219 51.34375 6.53125 50.328125 C 6.109375 49.3125 5.738281 48.28125 5.421875 47.230469 C 5.101562 46.179688 4.835938 45.117188 4.621094 44.039062 C 4.40625 42.960938 4.246094 41.878906 4.140625 40.785156 C 4.03125 39.691406 3.976562 38.597656 3.976562 37.5 C 3.976562 36.402344 4.03125 35.304688 4.140625 34.214844 C 4.246094 33.121094 4.40625 32.035156 4.621094 30.960938 C 4.835938 29.882812 5.101562 28.820312 5.421875 27.769531 C 5.738281 26.71875 6.109375 25.6875 6.53125 24.671875 C 6.949219 23.65625 7.417969 22.664062 7.9375 21.699219 C 8.453125 20.730469 9.015625 19.789062 9.628906 18.875 C 10.238281 17.964844 10.890625 17.082031 11.585938 16.234375 C 12.285156 15.386719 13.019531 14.574219 13.796875 13.796875 C 14.574219 13.019531 15.386719 12.285156 16.234375 11.585938 C 17.082031 10.890625 17.964844 10.238281 18.875 9.628906 C 19.789062 9.015625 20.730469 8.453125 21.699219 7.9375 C 22.664062 7.417969 23.65625 6.949219 24.671875 6.53125 C 25.6875 6.109375 26.71875 5.738281 27.769531 5.421875 C 28.820312 5.101562 29.882812 4.835938 30.960938 4.621094 C 32.035156 4.40625 33.121094 4.246094 34.214844 4.140625 C 35.304688 4.03125 36.402344 3.976562 37.5 3.976562 C 38.597656 3.976562 39.691406 4.03125 40.785156 4.140625 C 41.878906 4.246094 42.960938 4.40625 44.039062 4.621094 C 45.117188 4.835938 46.179688 5.101562 47.230469 5.421875 C 48.28125 5.738281 49.3125 6.109375 50.328125 6.53125 C 51.34375 6.949219 52.332031 7.417969 53.300781 7.9375 C 54.269531 8.453125 55.210938 9.015625 56.125 9.628906 C 57.035156 10.238281 57.917969 10.890625 58.765625 11.585938 C 59.613281 12.285156 60.425781 13.019531 61.203125 13.796875 C 61.980469 14.574219 62.714844 15.386719 63.410156 16.234375 C 64.109375 17.082031 64.761719 17.964844 65.371094 18.875 C 65.980469 19.789062 66.546875 20.730469 67.0625 21.699219 C 67.582031 22.664062 68.050781 23.65625 68.46875 24.671875 C 68.890625 25.6875 69.257812 26.71875 69.578125 27.769531 C 69.894531 28.820312 70.164062 29.882812 70.378906 30.960938 C 70.589844 32.035156 70.753906 33.121094 70.859375 34.214844 C 70.96875 35.304688 71.019531 36.402344 71.019531 37.5 Z M 71.019531 37.5 " fill-opacity="1" fill-rule="nonzero"/></g><path fill="#2ecc40" d="M 37.496094 50.925781 C 37.835938 50.925781 38.125 50.683594 38.125 50.34375 C 38.125 50.003906 37.882812 49.710938 37.542969 49.710938 C 37.203125 49.710938 36.914062 49.953125 36.914062 50.292969 C 36.914062 50.632812 37.15625 50.875 37.496094 50.925781 Z M 37.496094 50.925781 " fill-opacity="1" fill-rule="nonzero"/><g clip-path="url(#fc9b337683)"><path fill="#2ecc40" d="M 48.984375 18.300781 L 51.601562 18.300781 L 38.027344 33.472656 L 32.597656 29.691406 C 32.308594 29.496094 31.96875 29.546875 31.773438 29.835938 L 25.617188 38.125 C 25.425781 38.417969 25.472656 38.757812 25.765625 39 C 25.859375 39.097656 26.007812 39.097656 26.152344 39.097656 C 26.34375 39.097656 26.539062 39 26.636719 38.855469 L 32.453125 31 L 37.785156 34.78125 C 38.027344 34.976562 38.367188 34.925781 38.609375 34.683594 L 52.425781 19.171875 L 52.425781 21.402344 C 52.425781 21.742188 52.667969 21.984375 53.007812 21.984375 C 53.347656 21.984375 53.589844 21.691406 53.589844 21.402344 L 53.589844 17.667969 C 53.589844 17.332031 53.296875 17.089844 53.007812 17.089844 L 48.933594 17.089844 C 48.597656 17.089844 48.351562 17.378906 48.351562 17.667969 C 48.351562 17.960938 48.644531 18.300781 48.984375 18.300781 Z M 48.984375 18.300781 " fill-opacity="1" fill-rule="nonzero"/></g><g clip-path="url(#b1356d579c)"><path fill="#2ecc40" d="M 56.0625 26.394531 C 56.0625 25.472656 55.332031 24.746094 54.460938 24.746094 L 49.515625 24.746094 C 49.175781 24.746094 48.933594 25.039062 48.933594 25.328125 C 48.933594 25.621094 49.226562 25.910156 49.515625 25.910156 L 54.414062 25.910156 C 54.65625 25.910156 54.800781 26.105469 54.800781 26.347656 L 54.800781 47.433594 L 52.714844 47.433594 L 52.714844 29.738281 C 52.714844 29.402344 52.425781 29.160156 52.132812 29.160156 L 48.644531 29.160156 C 48.304688 29.160156 48.0625 29.449219 48.0625 29.738281 L 48.0625 47.480469 L 45.445312 47.480469 L 45.445312 40.695312 C 45.445312 40.355469 45.152344 40.113281 44.863281 40.113281 L 41.277344 40.113281 C 40.9375 40.113281 40.695312 40.40625 40.695312 40.695312 L 40.695312 47.480469 L 38.078125 47.480469 L 38.078125 38.660156 C 38.078125 38.320312 37.785156 38.078125 37.496094 38.078125 L 34.003906 38.078125 C 33.664062 38.078125 33.421875 38.367188 33.421875 38.660156 L 33.421875 47.480469 L 30.804688 47.480469 L 30.804688 43.703125 C 30.804688 43.363281 30.515625 43.121094 30.222656 43.121094 L 26.683594 43.121094 C 26.34375 43.121094 26.101562 43.410156 26.101562 43.703125 L 26.101562 47.480469 L 20.140625 47.480469 L 20.140625 44.914062 L 23.292969 44.914062 C 23.632812 44.914062 23.875 44.621094 23.875 44.332031 C 23.875 44.039062 23.582031 43.75 23.292969 43.75 L 20.140625 43.75 L 20.140625 41.324219 L 23.292969 41.324219 C 23.632812 41.324219 23.875 41.035156 23.875 40.746094 C 23.875 40.453125 23.582031 40.164062 23.292969 40.164062 L 20.140625 40.164062 L 20.140625 37.738281 L 23.292969 37.738281 C 23.632812 37.738281 23.875 37.449219 23.875 37.15625 C 23.875 36.867188 23.582031 36.574219 23.292969 36.574219 L 20.140625 36.574219 L 20.140625 34.152344 L 23.292969 34.152344 C 23.632812 34.152344 23.875 33.859375 23.875 33.570312 C 23.875 33.277344 23.582031 32.988281 23.292969 32.988281 L 20.140625 32.988281 L 20.140625 30.5625 L 23.292969 30.5625 C 23.632812 30.5625 23.875 30.273438 23.875 29.984375 C 23.875 29.644531 23.582031 29.402344 23.292969 29.402344 L 20.140625 29.402344 L 20.140625 26.636719 C 20.140625 26.394531 20.335938 26.203125 20.527344 26.203125 L 42.730469 26.203125 C 43.070312 26.203125 43.3125 25.910156 43.3125 25.621094 C 43.3125 25.328125 43.019531 25.039062 42.730469 25.039062 L 20.578125 25.039062 C 19.65625 25.039062 18.976562 25.765625 18.976562 26.6875 L 18.929688 51.214844 C 18.976562 52.234375 19.753906 53.007812 20.769531 53.105469 L 32.792969 53.105469 C 32.792969 53.976562 32.792969 55.433594 32.746094 55.773438 C 32.597656 56.257812 32.210938 56.59375 31.726562 56.742188 L 29.882812 56.742188 C 29.542969 56.742188 29.300781 57.03125 29.300781 57.324219 C 29.300781 57.613281 29.59375 57.90625 29.882812 57.90625 L 45.152344 57.90625 C 45.492188 57.90625 45.734375 57.613281 45.734375 57.324219 C 45.734375 57.03125 45.445312 56.742188 45.152344 56.742188 L 43.214844 56.742188 C 42.730469 56.59375 42.390625 56.257812 42.292969 55.773438 C 42.246094 55.433594 42.246094 53.976562 42.195312 53.105469 L 54.511719 53.105469 C 55.480469 53.105469 56.0625 52.183594 56.0625 51.261719 Z M 54.898438 51.261719 C 54.898438 51.554688 54.753906 51.894531 54.558594 51.894531 L 20.722656 51.894531 C 20.382812 51.84375 20.140625 51.554688 20.09375 51.214844 L 20.09375 48.742188 L 54.847656 48.742188 L 54.847656 51.261719 Z M 54.898438 51.261719 " fill-opacity="1" fill-rule="nonzero"/></g></svg>