<svg xmlns="http://www.w3.org/2000/svg" xmlns:xlink="http://www.w3.org/1999/xlink" width="100" zoomAndPan="magnify" viewBox="0 0 75 74.999997" height="100" preserveAspectRatio="xMidYMid meet" version="1.0"><defs><clipPath id="802306306a"><path d="M 3.933594 3.933594 L 71.433594 3.933594 L 71.433594 71.433594 L 3.933594 71.433594 Z M 3.933594 3.933594 " clip-rule="nonzero"/></clipPath></defs><g clip-path="url(#802306306a)"><path fill="#2ecc40" d="M 37.484375 71.058594 C 55.976562 71.058594 71.058594 55.976562 71.058594 37.503906 C 71.058594 19.011719 55.976562 3.933594 37.484375 3.933594 C 19.015625 3.933594 3.933594 19.015625 3.933594 37.503906 C 3.933594 55.976562 19.015625 71.058594 37.484375 71.058594 Z M 37.484375 71.058594 " fill-opacity="1" fill-rule="evenodd"/></g><path fill="#ffffff" d="M 39.972656 52.519531 C 43.523438 46.566406 49.796875 35.222656 49.914062 29.410156 C 50.050781 22.5625 44.585938 16.984375 37.714844 16.984375 C 30.863281 16.984375 25.195312 22.566406 25.078125 29.410156 C 24.960938 35.222656 32.386719 46.566406 35.707031 52.519531 C 36.144531 53.300781 36.90625 53.761719 37.828125 53.761719 C 38.730469 53.761719 39.511719 53.300781 39.972656 52.519531 Z M 31.972656 49.011719 L 32.066406 49.011719 C 33.011719 50.601562 33.839844 52.03125 34.511719 53.210938 C 35.203125 54.433594 36.425781 55.148438 37.832031 55.148438 C 39.214844 55.148438 40.460938 54.433594 41.175781 53.234375 C 41.867188 52.058594 42.699219 50.628906 43.597656 49.035156 C 44.246094 49.058594 44.773438 49.335938 45.03125 49.75 L 48.878906 56.414062 C 49.109375 56.78125 49.042969 57.171875 48.71875 57.5 C 48.394531 57.820312 47.910156 58.007812 47.355469 58.007812 L 28.101562 58.007812 C 27.527344 58.007812 27.039062 57.820312 26.71875 57.5 C 26.421875 57.175781 26.351562 56.785156 26.554688 56.414062 L 30.429688 49.75 C 30.683594 49.289062 31.28125 49.011719 31.972656 49.011719 Z M 42.671875 29.851562 C 42.625 32.710938 40.25 35.035156 37.390625 35.035156 C 34.507812 35.035156 32.226562 32.707031 32.296875 29.851562 C 32.339844 26.964844 34.71875 24.664062 37.574219 24.664062 C 40.457031 24.664062 42.742188 26.96875 42.671875 29.851562 Z M 42.671875 29.851562 " fill-opacity="1" fill-rule="evenodd"/></svg>