<svg xmlns="http://www.w3.org/2000/svg" xmlns:xlink="http://www.w3.org/1999/xlink" width="100" zoomAndPan="magnify" viewBox="0 0 75 74.999997" height="100" preserveAspectRatio="xMidYMid meet" version="1.0"><defs><clipPath id="1bac5719c2"><path d="M 3.976562 3.976562 L 70.726562 3.976562 L 70.726562 70.726562 L 3.976562 70.726562 Z M 3.976562 3.976562 " clip-rule="nonzero"/></clipPath><clipPath id="4b347a87b7"><path d="M 10.300781 18.15625 L 65 18.15625 L 65 57 L 10.300781 57 Z M 10.300781 18.15625 " clip-rule="nonzero"/></clipPath><clipPath id="5caa036a18"><path d="M 26 18.15625 L 60 18.15625 L 60 38 L 26 38 Z M 26 18.15625 " clip-rule="nonzero"/></clipPath></defs><g clip-path="url(#1bac5719c2)"><path fill="#1b87fa" d="M 71.019531 37.5 C 71.019531 38.597656 70.96875 39.691406 70.859375 40.785156 C 70.753906 41.878906 70.589844 42.960938 70.378906 44.039062 C 70.164062 45.117188 69.894531 46.179688 69.578125 47.230469 C 69.257812 48.28125 68.890625 49.3125 68.46875 50.328125 C 68.050781 51.34375 67.582031 52.332031 67.0625 53.300781 C 66.546875 54.269531 65.980469 55.210938 65.371094 56.125 C 64.761719 57.035156 64.109375 57.917969 63.410156 58.765625 C 62.714844 59.613281 61.980469 60.425781 61.203125 61.203125 C 60.425781 61.980469 59.613281 62.714844 58.765625 63.410156 C 57.917969 64.109375 57.035156 64.761719 56.125 65.371094 C 55.210938 65.980469 54.269531 66.546875 53.300781 67.0625 C 52.332031 67.582031 51.34375 68.050781 50.328125 68.46875 C 49.3125 68.890625 48.28125 69.257812 47.230469 69.578125 C 46.179688 69.894531 45.117188 70.164062 44.039062 70.375 C 42.960938 70.589844 41.878906 70.753906 40.785156 70.859375 C 39.691406 70.96875 38.597656 71.019531 37.5 71.019531 C 36.402344 71.019531 35.304688 70.96875 34.214844 70.859375 C 33.121094 70.753906 32.035156 70.589844 30.960938 70.375 C 29.882812 70.164062 28.820312 69.894531 27.769531 69.578125 C 26.71875 69.257812 25.6875 68.890625 24.671875 68.46875 C 23.65625 68.050781 22.664062 67.582031 21.699219 67.0625 C 20.730469 66.546875 19.789062 65.980469 18.875 65.371094 C 17.964844 64.761719 17.082031 64.109375 16.234375 63.410156 C 15.386719 62.714844 14.574219 61.980469 13.796875 61.203125 C 13.019531 60.425781 12.285156 59.613281 11.585938 58.765625 C 10.890625 57.917969 10.238281 57.035156 9.628906 56.125 C 9.015625 55.210938 8.453125 54.269531 7.9375 53.300781 C 7.417969 52.332031 6.949219 51.34375 6.53125 50.328125 C 6.109375 49.3125 5.738281 48.28125 5.421875 47.230469 C 5.101562 46.179688 4.835938 45.117188 4.621094 44.039062 C 4.40625 42.960938 4.246094 41.878906 4.140625 40.785156 C 4.03125 39.691406 3.976562 38.597656 3.976562 37.5 C 3.976562 36.402344 4.03125 35.304688 4.140625 34.214844 C 4.246094 33.121094 4.40625 32.035156 4.621094 30.960938 C 4.835938 29.882812 5.101562 28.820312 5.421875 27.769531 C 5.738281 26.71875 6.109375 25.6875 6.53125 24.671875 C 6.949219 23.65625 7.417969 22.664062 7.9375 21.699219 C 8.453125 20.730469 9.015625 19.789062 9.628906 18.875 C 10.238281 17.964844 10.890625 17.082031 11.585938 16.234375 C 12.285156 15.386719 13.019531 14.574219 13.796875 13.796875 C 14.574219 13.019531 15.386719 12.285156 16.234375 11.585938 C 17.082031 10.890625 17.964844 10.238281 18.875 9.628906 C 19.789062 9.015625 20.730469 8.453125 21.699219 7.9375 C 22.664062 7.417969 23.65625 6.949219 24.671875 6.53125 C 25.6875 6.109375 26.71875 5.738281 27.769531 5.421875 C 28.820312 5.101562 29.882812 4.835938 30.960938 4.621094 C 32.035156 4.40625 33.121094 4.246094 34.214844 4.140625 C 35.304688 4.03125 36.402344 3.976562 37.5 3.976562 C 38.597656 3.976562 39.691406 4.03125 40.785156 4.140625 C 41.878906 4.246094 42.960938 4.40625 44.039062 4.621094 C 45.117188 4.835938 46.179688 5.101562 47.230469 5.421875 C 48.28125 5.738281 49.3125 6.109375 50.328125 6.53125 C 51.34375 6.949219 52.332031 7.417969 53.300781 7.9375 C 54.269531 8.453125 55.210938 9.015625 56.125 9.628906 C 57.035156 10.238281 57.917969 10.890625 58.765625 11.585938 C 59.613281 12.285156 60.425781 13.019531 61.203125 13.796875 C 61.980469 14.574219 62.714844 15.386719 63.410156 16.234375 C 64.109375 17.082031 64.761719 17.964844 65.371094 18.875 C 65.980469 19.789062 66.546875 20.730469 67.0625 21.699219 C 67.582031 22.664062 68.050781 23.65625 68.46875 24.671875 C 68.890625 25.6875 69.257812 26.71875 69.578125 27.769531 C 69.894531 28.820312 70.164062 29.882812 70.378906 30.960938 C 70.589844 32.035156 70.753906 33.121094 70.859375 34.214844 C 70.96875 35.304688 71.019531 36.402344 71.019531 37.5 Z M 71.019531 37.5 " fill-opacity="1" fill-rule="nonzero"/></g><g clip-path="url(#4b347a87b7)"><path fill="#ffffff" d="M 63.601562 51.335938 L 58.390625 51.335938 L 58.390625 31.710938 C 58.390625 31.226562 57.996094 30.832031 57.511719 30.832031 L 53.796875 30.832031 C 53.308594 30.832031 52.914062 31.226562 52.914062 31.710938 L 52.914062 51.335938 L 50.855469 51.335938 L 50.855469 40.292969 C 50.855469 39.808594 50.464844 39.414062 49.976562 39.414062 L 46.261719 39.414062 C 45.773438 39.414062 45.378906 39.808594 45.378906 40.292969 L 45.378906 51.335938 L 43.324219 51.335938 L 43.324219 35.351562 C 43.324219 34.863281 42.929688 34.46875 42.441406 34.46875 L 38.726562 34.46875 C 38.238281 34.46875 37.847656 34.863281 37.847656 35.351562 L 37.847656 51.335938 L 35.789062 51.335938 L 35.789062 43.734375 C 35.789062 43.25 35.394531 42.855469 34.90625 42.855469 L 31.191406 42.855469 C 30.707031 42.855469 30.3125 43.25 30.3125 43.734375 L 30.3125 51.335938 L 27.355469 51.335938 C 28.042969 50.058594 28.433594 48.597656 28.433594 47.050781 C 28.433594 42.445312 24.988281 38.636719 20.539062 38.058594 L 20.539062 19.546875 C 20.539062 18.941406 20.046875 18.445312 19.4375 18.445312 C 18.832031 18.445312 18.339844 18.941406 18.339844 19.546875 L 18.339844 38.039062 C 13.820312 38.550781 10.296875 42.394531 10.296875 47.050781 C 10.296875 52.050781 14.367188 56.117188 19.367188 56.117188 C 21.824219 56.117188 24.058594 55.132812 25.691406 53.535156 L 63.601562 53.535156 C 64.210938 53.535156 64.703125 53.042969 64.703125 52.4375 C 64.703125 51.828125 64.210938 51.335938 63.601562 51.335938 Z M 54.675781 32.59375 L 56.632812 32.59375 L 56.632812 51.335938 L 54.675781 51.335938 Z M 47.140625 41.175781 L 49.097656 41.175781 L 49.097656 51.335938 L 47.140625 51.335938 Z M 39.605469 36.230469 L 41.5625 36.230469 L 41.5625 51.335938 L 39.605469 51.335938 Z M 32.070312 44.617188 L 34.027344 44.617188 L 34.027344 51.335938 L 32.070312 51.335938 Z M 17.441406 50.792969 C 17.066406 50.570312 16.765625 50.277344 16.53125 49.910156 C 16.296875 49.542969 16.183594 49.1875 16.183594 48.839844 C 16.183594 48.640625 16.25 48.46875 16.390625 48.324219 C 16.53125 48.179688 16.710938 48.109375 16.925781 48.109375 C 17.101562 48.109375 17.25 48.164062 17.371094 48.277344 C 17.492188 48.390625 17.59375 48.554688 17.679688 48.773438 C 17.785156 49.035156 17.898438 49.253906 18.019531 49.429688 C 18.140625 49.601562 18.308594 49.746094 18.527344 49.859375 C 18.75 49.976562 19.039062 50.03125 19.394531 50.03125 C 19.886719 50.03125 20.285156 49.917969 20.59375 49.6875 C 20.902344 49.457031 21.054688 49.171875 21.054688 48.832031 C 21.054688 48.558594 20.972656 48.335938 20.804688 48.167969 C 20.640625 48 20.425781 47.867188 20.164062 47.78125 C 19.902344 47.691406 19.550781 47.59375 19.109375 47.496094 C 18.523438 47.355469 18.027344 47.195312 17.632812 47.011719 C 17.234375 46.828125 16.921875 46.574219 16.6875 46.257812 C 16.453125 45.9375 16.339844 45.542969 16.339844 45.070312 C 16.339844 44.617188 16.460938 44.21875 16.707031 43.867188 C 16.953125 43.515625 17.308594 43.25 17.773438 43.058594 C 18.082031 42.9375 18.425781 42.855469 18.800781 42.8125 L 18.800781 42.117188 C 18.800781 41.769531 19.085938 41.480469 19.4375 41.480469 C 19.789062 41.480469 20.074219 41.769531 20.074219 42.117188 L 20.074219 42.820312 C 20.308594 42.851562 20.527344 42.898438 20.722656 42.964844 C 21.089844 43.089844 21.394531 43.253906 21.636719 43.460938 C 21.878906 43.667969 22.054688 43.886719 22.167969 44.113281 C 22.277344 44.339844 22.335938 44.5625 22.335938 44.777344 C 22.335938 44.976562 22.265625 45.152344 22.125 45.3125 C 21.984375 45.472656 21.8125 45.550781 21.601562 45.550781 C 21.414062 45.550781 21.269531 45.503906 21.167969 45.40625 C 21.070312 45.3125 20.964844 45.15625 20.847656 44.941406 C 20.699219 44.632812 20.519531 44.390625 20.3125 44.21875 C 20.101562 44.042969 19.769531 43.957031 19.304688 43.957031 C 18.878906 43.957031 18.53125 44.050781 18.269531 44.238281 C 18.007812 44.425781 17.875 44.652344 17.875 44.917969 C 17.875 45.082031 17.921875 45.222656 18.007812 45.34375 C 18.097656 45.460938 18.222656 45.566406 18.378906 45.652344 C 18.535156 45.734375 18.691406 45.804688 18.851562 45.851562 C 19.011719 45.898438 19.277344 45.96875 19.648438 46.0625 C 20.109375 46.171875 20.527344 46.292969 20.902344 46.421875 C 21.277344 46.550781 21.59375 46.710938 21.855469 46.898438 C 22.121094 47.082031 22.324219 47.320312 22.472656 47.605469 C 22.617188 47.886719 22.691406 48.238281 22.691406 48.652344 C 22.691406 49.148438 22.566406 49.59375 22.308594 49.988281 C 22.054688 50.382812 21.679688 50.691406 21.1875 50.914062 C 20.859375 51.066406 20.484375 51.164062 20.070312 51.214844 C 20.070312 51.222656 20.074219 51.230469 20.074219 51.238281 L 20.074219 51.949219 C 20.074219 52.296875 19.785156 52.585938 19.4375 52.585938 C 19.085938 52.585938 18.800781 52.296875 18.800781 51.949219 L 18.800781 51.238281 C 18.800781 51.230469 18.804688 51.222656 18.804688 51.214844 C 18.273438 51.152344 17.820312 51.011719 17.441406 50.792969 Z M 17.441406 50.792969 " fill-opacity="1" fill-rule="nonzero"/></g><g clip-path="url(#5caa036a18)"><path fill="#ffffff" d="M 27.625 37.863281 C 27.90625 37.863281 28.191406 37.757812 28.40625 37.542969 L 39.285156 26.660156 L 44.984375 32.359375 C 45.191406 32.566406 45.472656 32.683594 45.761719 32.683594 C 46.054688 32.683594 46.335938 32.566406 46.539062 32.359375 L 55.296875 23.605469 L 56.664062 24.972656 C 56.800781 25.113281 56.988281 25.1875 57.179688 25.1875 C 57.25 25.1875 57.320312 25.179688 57.390625 25.160156 C 57.648438 25.082031 57.84375 24.871094 57.898438 24.609375 L 59.085938 19.074219 C 59.136719 18.832031 59.0625 18.578125 58.886719 18.402344 C 58.710938 18.226562 58.457031 18.152344 58.214844 18.203125 L 52.679688 19.390625 C 52.417969 19.445312 52.207031 19.640625 52.128906 19.898438 C 52.054688 20.15625 52.125 20.4375 52.316406 20.625 L 53.738281 22.050781 L 45.761719 30.027344 L 40.0625 24.328125 C 39.632812 23.898438 38.9375 23.898438 38.507812 24.328125 L 26.847656 35.988281 C 26.417969 36.417969 26.417969 37.113281 26.847656 37.542969 C 27.0625 37.757812 27.34375 37.863281 27.625 37.863281 Z M 27.625 37.863281 " fill-opacity="1" fill-rule="nonzero"/></g><path fill="#ffffff" d="M 33.289062 55.066406 L 29.347656 55.066406 C 28.859375 55.066406 28.464844 55.460938 28.464844 55.949219 C 28.464844 56.433594 28.859375 56.828125 29.347656 56.828125 L 33.289062 56.828125 C 33.773438 56.828125 34.167969 56.433594 34.167969 55.949219 C 34.167969 55.460938 33.773438 55.066406 33.289062 55.066406 Z M 33.289062 55.066406 " fill-opacity="1" fill-rule="nonzero"/><path fill="#ffffff" d="M 37.75 55.066406 L 36.300781 55.066406 C 35.8125 55.066406 35.417969 55.460938 35.417969 55.949219 C 35.417969 56.433594 35.8125 56.828125 36.300781 56.828125 L 37.75 56.828125 C 38.238281 56.828125 38.632812 56.433594 38.632812 55.949219 C 38.632812 55.460938 38.238281 55.066406 37.75 55.066406 Z M 37.75 55.066406 " fill-opacity="1" fill-rule="nonzero"/><path fill="#ffffff" d="M 52.300781 55.066406 L 40.929688 55.066406 C 40.445312 55.066406 40.050781 55.460938 40.050781 55.949219 C 40.050781 56.433594 40.445312 56.828125 40.929688 56.828125 L 52.300781 56.828125 C 52.785156 56.828125 53.179688 56.433594 53.179688 55.949219 C 53.179688 55.460938 52.785156 55.066406 52.300781 55.066406 Z M 52.300781 55.066406 " fill-opacity="1" fill-rule="nonzero"/></svg>