<svg xmlns="http://www.w3.org/2000/svg" xmlns:xlink="http://www.w3.org/1999/xlink" width="100" zoomAndPan="magnify" viewBox="0 0 75 74.999997" height="100" preserveAspectRatio="xMidYMid meet" version="1.0"><defs><clipPath id="d023327d0c"><path d="M 3.976562 3.976562 L 70.726562 3.976562 L 70.726562 70.726562 L 3.976562 70.726562 Z M 3.976562 3.976562 " clip-rule="nonzero"/></clipPath></defs><g clip-path="url(#d023327d0c)"><path fill="#2ecc40" d="M 37.488281 71.019531 C 55.960938 71.019531 71.019531 55.957031 71.019531 37.511719 C 71.019531 19.039062 55.957031 3.976562 37.488281 3.976562 C 19.042969 3.976562 3.976562 19.042969 3.976562 37.511719 C 3.976562 55.957031 19.042969 71.019531 37.488281 71.019531 Z M 37.488281 71.019531 " fill-opacity="1" fill-rule="evenodd"/></g><path fill="#ffffff" d="M 57.5 37.902344 C 57.824219 34.058594 56.558594 28.921875 54.4375 25.695312 L 53.839844 24.777344 C 51.238281 20.769531 46.585938 17.636719 42 16.394531 L 41.054688 16.183594 C 40.386719 16.136719 39.929688 16.945312 40.15625 17.542969 C 40.386719 18.167969 40.871094 18.097656 41.425781 18.234375 C 42.714844 18.601562 44.074219 19.109375 45.269531 19.730469 C 46.535156 20.421875 47.777344 21.183594 48.886719 22.152344 C 51.765625 24.660156 53.746094 27.65625 54.828125 31.339844 C 55.585938 33.898438 55.84375 37.097656 55.335938 39.722656 C 55.242188 40.253906 55.125 40.714844 55.5625 41.105469 C 55.863281 41.378906 56.390625 41.402344 56.738281 41.199219 C 57.246094 40.898438 57.175781 40.347656 57.289062 39.816406 Z M 37.050781 56.695312 C 40.875 58.609375 45.226562 59.621094 49.257812 58.03125 C 50.894531 57.386719 55.015625 54.625 53.933594 52.183594 C 53.519531 51.191406 49.671875 47.023438 48.984375 46.261719 C 48.359375 45.59375 46.957031 43.867188 46.171875 43.613281 C 44.445312 42.992188 42.121094 45.089844 41.152344 46.496094 C 40.785156 46.976562 40.667969 48.382812 40.347656 48.542969 C 37.398438 50.085938 27.378906 38.25 27.035156 34.679688 C 26.875 33.226562 27.082031 33.273438 28.253906 33.179688 C 29.363281 33.066406 29.84375 32.605469 30.464844 32.074219 C 31.179688 31.429688 32.492188 30.488281 32.746094 29.566406 C 33.390625 27.097656 27.519531 21.78125 26.019531 20.121094 C 25.421875 19.546875 25.375 19.292969 24.15625 19.179688 C 23.28125 19.109375 22.703125 19.5 22.242188 19.867188 L 20.074219 21.804688 C 18.808594 23.160156 18.1875 24.429688 17.75 26.457031 C 17.035156 29.679688 17.679688 32.652344 18.625 35.648438 C 21.273438 44.167969 28.714844 51.421875 36.152344 56.210938 C 36.476562 56.375 36.703125 56.511719 37.050781 56.695312 Z M 45.574219 38.363281 C 46.058594 36.5 45.574219 34.101562 44.722656 32.398438 C 43.5 29.980469 41.449219 28.554688 38.917969 27.746094 C 36.9375 27.121094 36.914062 29.3125 37.902344 29.519531 C 39.472656 29.816406 40.921875 30.601562 41.980469 31.800781 C 43.386719 33.410156 44.144531 35.714844 43.730469 37.835938 C 43.683594 38.0625 43.589844 38.386719 43.636719 38.59375 C 43.777344 39.125 44.191406 39.351562 44.722656 39.328125 C 44.949219 39.328125 45.183594 39.191406 45.34375 39.03125 C 45.550781 38.800781 45.503906 38.664062 45.574219 38.363281 Z M 51.605469 37.835938 C 51.8125 34.425781 50.984375 31.039062 49.050781 28.207031 C 47.230469 25.511719 44.605469 23.53125 41.542969 22.425781 C 40.921875 22.21875 39.722656 21.667969 39.101562 22.082031 C 38.523438 22.449219 38.5 23.417969 39.167969 23.738281 L 40.574219 24.128906 C 40.574219 24.128906 40.574219 24.128906 40.597656 24.128906 C 41.105469 24.316406 41.589844 24.496094 42.074219 24.730469 C 47.234375 27.078125 50.15625 32.398438 49.648438 37.996094 C 49.601562 38.480469 49.464844 39.011719 49.441406 39.472656 C 49.394531 40.207031 50.410156 40.53125 50.9375 40.207031 C 51.445312 39.886719 51.46875 39.054688 51.539062 38.527344 C 51.558594 38.292969 51.582031 38.0625 51.605469 37.835938 Z M 51.605469 37.835938 " fill-opacity="1" fill-rule="evenodd"/></svg>