<svg xmlns="http://www.w3.org/2000/svg" xmlns:xlink="http://www.w3.org/1999/xlink" width="100" zoomAndPan="magnify" viewBox="0 0 75 74.999997" height="100" preserveAspectRatio="xMidYMid meet" version="1.0"><defs><clipPath id="20d98a82ee"><path d="M 3.976562 3.976562 L 70.726562 3.976562 L 70.726562 70.726562 L 3.976562 70.726562 Z M 3.976562 3.976562 " clip-rule="nonzero"/></clipPath><clipPath id="103cfe893f"><path d="M 15.40625 15.40625 L 36 15.40625 L 36 36 L 15.40625 36 Z M 15.40625 15.40625 " clip-rule="nonzero"/></clipPath><clipPath id="2efbd83a2a"><path d="M 39 15.40625 L 59.65625 15.40625 L 59.65625 36 L 39 36 Z M 39 15.40625 " clip-rule="nonzero"/></clipPath><clipPath id="5a44d9c39b"><path d="M 15.804688 39.785156 L 35.707031 39.785156 L 35.707031 59.609375 L 15.804688 59.609375 Z M 15.804688 39.785156 " clip-rule="nonzero"/></clipPath><clipPath id="a993723472"><path d="M 39.6875 39.785156 L 59.585938 39.785156 L 59.585938 59.609375 L 39.6875 59.609375 Z M 39.6875 39.785156 " clip-rule="nonzero"/></clipPath></defs><g clip-path="url(#20d98a82ee)"><path fill="#1b87fa" d="M 71.019531 37.5 C 71.019531 38.597656 70.96875 39.691406 70.859375 40.785156 C 70.753906 41.878906 70.589844 42.960938 70.378906 44.039062 C 70.164062 45.117188 69.894531 46.179688 69.578125 47.230469 C 69.257812 48.28125 68.890625 49.3125 68.46875 50.328125 C 68.050781 51.34375 67.582031 52.332031 67.0625 53.300781 C 66.546875 54.269531 65.980469 55.210938 65.371094 56.125 C 64.761719 57.035156 64.109375 57.917969 63.410156 58.765625 C 62.714844 59.613281 61.980469 60.425781 61.203125 61.203125 C 60.425781 61.980469 59.613281 62.714844 58.765625 63.410156 C 57.917969 64.109375 57.035156 64.761719 56.125 65.371094 C 55.210938 65.980469 54.269531 66.546875 53.300781 67.0625 C 52.332031 67.582031 51.34375 68.050781 50.328125 68.46875 C 49.3125 68.890625 48.28125 69.257812 47.230469 69.578125 C 46.179688 69.894531 45.117188 70.164062 44.039062 70.375 C 42.960938 70.589844 41.878906 70.753906 40.785156 70.859375 C 39.691406 70.96875 38.597656 71.019531 37.5 71.019531 C 36.402344 71.019531 35.304688 70.96875 34.214844 70.859375 C 33.121094 70.753906 32.035156 70.589844 30.960938 70.375 C 29.882812 70.164062 28.820312 69.894531 27.769531 69.578125 C 26.71875 69.257812 25.6875 68.890625 24.671875 68.46875 C 23.65625 68.050781 22.664062 67.582031 21.699219 67.0625 C 20.730469 66.546875 19.789062 65.980469 18.875 65.371094 C 17.964844 64.761719 17.082031 64.109375 16.234375 63.410156 C 15.386719 62.714844 14.574219 61.980469 13.796875 61.203125 C 13.019531 60.425781 12.285156 59.613281 11.585938 58.765625 C 10.890625 57.917969 10.238281 57.035156 9.628906 56.125 C 9.015625 55.210938 8.453125 54.269531 7.9375 53.300781 C 7.417969 52.332031 6.949219 51.34375 6.53125 50.328125 C 6.109375 49.3125 5.738281 48.28125 5.421875 47.230469 C 5.101562 46.179688 4.835938 45.117188 4.621094 44.039062 C 4.40625 42.960938 4.246094 41.878906 4.140625 40.785156 C 4.03125 39.691406 3.976562 38.597656 3.976562 37.5 C 3.976562 36.402344 4.03125 35.304688 4.140625 34.214844 C 4.246094 33.121094 4.40625 32.035156 4.621094 30.960938 C 4.835938 29.882812 5.101562 28.820312 5.421875 27.769531 C 5.738281 26.71875 6.109375 25.6875 6.53125 24.671875 C 6.949219 23.65625 7.417969 22.664062 7.9375 21.699219 C 8.453125 20.730469 9.015625 19.789062 9.628906 18.875 C 10.238281 17.964844 10.890625 17.082031 11.585938 16.234375 C 12.285156 15.386719 13.019531 14.574219 13.796875 13.796875 C 14.574219 13.019531 15.386719 12.285156 16.234375 11.585938 C 17.082031 10.890625 17.964844 10.238281 18.875 9.628906 C 19.789062 9.015625 20.730469 8.453125 21.699219 7.9375 C 22.664062 7.417969 23.65625 6.949219 24.671875 6.53125 C 25.6875 6.109375 26.71875 5.738281 27.769531 5.421875 C 28.820312 5.101562 29.882812 4.835938 30.960938 4.621094 C 32.035156 4.40625 33.121094 4.246094 34.214844 4.140625 C 35.304688 4.03125 36.402344 3.976562 37.5 3.976562 C 38.597656 3.976562 39.691406 4.03125 40.785156 4.140625 C 41.878906 4.246094 42.960938 4.40625 44.039062 4.621094 C 45.117188 4.835938 46.179688 5.101562 47.230469 5.421875 C 48.28125 5.738281 49.3125 6.109375 50.328125 6.53125 C 51.34375 6.949219 52.332031 7.417969 53.300781 7.9375 C 54.269531 8.453125 55.210938 9.015625 56.125 9.628906 C 57.035156 10.238281 57.917969 10.890625 58.765625 11.585938 C 59.613281 12.285156 60.425781 13.019531 61.203125 13.796875 C 61.980469 14.574219 62.714844 15.386719 63.410156 16.234375 C 64.109375 17.082031 64.761719 17.964844 65.371094 18.875 C 65.980469 19.789062 66.546875 20.730469 67.0625 21.699219 C 67.582031 22.664062 68.050781 23.65625 68.46875 24.671875 C 68.890625 25.6875 69.257812 26.71875 69.578125 27.769531 C 69.894531 28.820312 70.164062 29.882812 70.378906 30.960938 C 70.589844 32.035156 70.753906 33.121094 70.859375 34.214844 C 70.96875 35.304688 71.019531 36.402344 71.019531 37.5 Z M 71.019531 37.5 " fill-opacity="1" fill-rule="nonzero"/></g><g clip-path="url(#103cfe893f)"><path fill="#ffffff" d="M 33.84375 22.515625 C 33.570312 22.585938 33.332031 22.765625 33.1875 23.011719 C 33.039062 23.253906 33 23.546875 33.074219 23.824219 C 33.230469 24.441406 33.3125 25.078125 33.3125 25.714844 C 33.316406 28.015625 32.28125 30.199219 30.507812 31.660156 C 28.726562 33.121094 26.386719 33.703125 24.128906 33.253906 C 21.871094 32.800781 19.933594 31.359375 18.851562 29.332031 C 17.769531 27.296875 17.65625 24.886719 18.542969 22.761719 C 19.429688 20.636719 21.222656 19.023438 23.429688 18.363281 C 25.632812 17.703125 28.019531 18.0625 29.925781 19.347656 C 30.417969 19.65625 31.058594 19.523438 31.382812 19.046875 C 31.707031 18.566406 31.59375 17.917969 31.132812 17.582031 C 28.574219 15.859375 25.359375 15.441406 22.449219 16.453125 C 19.539062 17.464844 17.269531 19.785156 16.332031 22.71875 C 15.386719 25.648438 15.878906 28.855469 17.660156 31.371094 C 19.441406 33.886719 22.300781 35.417969 25.382812 35.507812 C 28.460938 35.597656 31.402344 34.226562 33.324219 31.824219 C 35.246094 29.414062 35.921875 26.238281 35.152344 23.253906 C 34.992188 22.691406 34.410156 22.367188 33.84375 22.515625 " fill-opacity="1" fill-rule="nonzero"/></g><g clip-path="url(#2efbd83a2a)"><path fill="#ffffff" d="M 49.753906 18.0625 C 51.792969 18.054688 53.757812 18.855469 55.203125 20.292969 C 56.648438 21.726562 57.46875 23.683594 57.476562 25.722656 C 57.480469 27.761719 56.675781 29.71875 55.238281 31.164062 C 53.796875 32.609375 51.839844 33.421875 49.800781 33.425781 C 47.761719 33.429688 45.804688 32.617188 44.363281 31.175781 C 42.917969 29.734375 42.109375 27.78125 42.113281 25.738281 C 42.117188 23.710938 42.921875 21.761719 44.351562 20.324219 C 45.785156 18.890625 47.730469 18.074219 49.753906 18.0625 Z M 49.753906 35.566406 C 52.363281 35.570312 54.859375 34.535156 56.703125 32.691406 C 58.550781 30.851562 59.585938 28.351562 59.585938 25.742188 C 59.589844 23.140625 58.554688 20.636719 56.710938 18.792969 C 54.867188 16.949219 52.371094 15.914062 49.765625 15.914062 C 47.15625 15.914062 44.660156 16.945312 42.816406 18.789062 C 40.96875 20.632812 39.9375 23.136719 39.9375 25.738281 C 39.941406 28.34375 40.972656 30.839844 42.816406 32.679688 C 44.65625 34.523438 47.152344 35.5625 49.753906 35.566406 " fill-opacity="1" fill-rule="nonzero"/></g><g clip-path="url(#5a44d9c39b)"><path fill="#ffffff" d="M 25.640625 57.457031 C 23.597656 57.460938 21.644531 56.652344 20.203125 55.210938 C 18.761719 53.769531 17.953125 51.816406 17.953125 49.777344 C 17.953125 47.738281 18.761719 45.785156 20.203125 44.34375 C 21.640625 42.902344 23.59375 42.09375 25.632812 42.09375 C 27.671875 42.09375 29.628906 42.902344 31.066406 44.347656 C 32.507812 45.789062 33.316406 47.742188 33.3125 49.785156 C 33.3125 51.816406 32.5 53.765625 31.0625 55.207031 C 29.625 56.644531 27.671875 57.453125 25.640625 57.457031 Z M 25.640625 39.957031 C 23.03125 39.953125 20.53125 40.988281 18.6875 42.828125 C 16.84375 44.671875 15.804688 47.171875 15.804688 49.777344 C 15.804688 52.382812 16.839844 54.882812 18.683594 56.730469 C 20.523438 58.570312 23.023438 59.605469 25.628906 59.609375 C 28.234375 59.609375 30.734375 58.570312 32.578125 56.730469 C 34.425781 54.886719 35.457031 52.386719 35.457031 49.78125 C 35.453125 47.179688 34.421875 44.679688 32.578125 42.835938 C 30.738281 41 28.238281 39.960938 25.640625 39.957031 " fill-opacity="1" fill-rule="nonzero"/></g><g clip-path="url(#a993723472)"><path fill="#ffffff" d="M 49.753906 57.457031 C 47.71875 57.457031 45.761719 56.648438 44.324219 55.207031 C 42.882812 53.761719 42.074219 51.8125 42.074219 49.773438 C 42.074219 47.734375 42.886719 45.78125 44.324219 44.34375 C 45.765625 42.898438 47.722656 42.089844 49.757812 42.09375 C 51.796875 42.09375 53.753906 42.902344 55.191406 44.347656 C 56.628906 45.789062 57.4375 47.742188 57.4375 49.785156 C 57.433594 51.816406 56.625 53.769531 55.183594 55.210938 C 53.746094 56.648438 51.789062 57.457031 49.753906 57.457031 Z M 49.753906 39.957031 C 47.148438 39.957031 44.652344 40.992188 42.808594 42.832031 C 40.964844 44.675781 39.929688 47.175781 39.929688 49.78125 C 39.929688 52.386719 40.964844 54.886719 42.808594 56.730469 C 44.652344 58.570312 47.148438 59.609375 49.753906 59.609375 C 52.363281 59.609375 54.859375 58.570312 56.703125 56.730469 C 58.546875 54.886719 59.578125 52.386719 59.578125 49.78125 C 59.574219 47.175781 58.542969 44.679688 56.699219 42.835938 C 54.855469 40.996094 52.359375 39.957031 49.753906 39.957031 " fill-opacity="1" fill-rule="nonzero"/></g><path fill="#ffffff" d="M 25.265625 26.753906 L 22.644531 24.125 L 21.125 25.644531 L 25.265625 29.789062 L 36.914062 18.140625 L 35.394531 16.625 L 25.265625 26.753906 " fill-opacity="1" fill-rule="nonzero"/></svg>