<svg xmlns="http://www.w3.org/2000/svg" xmlns:xlink="http://www.w3.org/1999/xlink" width="100" zoomAndPan="magnify" viewBox="0 0 75 74.999997" height="100" preserveAspectRatio="xMidYMid meet" version="1.0"><defs><clipPath id="a5e9ebecd8"><path d="M 3.976562 3.976562 L 70.726562 3.976562 L 70.726562 70.726562 L 3.976562 70.726562 Z M 3.976562 3.976562 " clip-rule="nonzero"/></clipPath></defs><g clip-path="url(#a5e9ebecd8)"><path fill="#2ecc40" d="M 37.511719 71.019531 C 55.957031 71.019531 71.019531 55.957031 71.019531 37.511719 C 71.019531 19.039062 55.957031 3.976562 37.511719 3.976562 C 19.039062 3.976562 3.976562 19.042969 3.976562 37.511719 C 3.976562 55.957031 19.042969 71.019531 37.511719 71.019531 Z M 37.511719 71.019531 " fill-opacity="1" fill-rule="evenodd"/></g><path fill="#ffffff" d="M 16.875 28.460938 L 36.40625 15.886719 C 37.09375 15.449219 37.902344 15.449219 38.59375 15.886719 L 58.125 28.460938 C 58.699219 28.828125 59.046875 29.429688 59.046875 30.117188 L 59.046875 51.191406 C 59.046875 52.273438 58.148438 53.171875 57.042969 53.171875 L 17.957031 53.171875 C 16.851562 53.171875 15.976562 52.273438 15.976562 51.191406 L 15.976562 30.117188 C 15.976562 29.425781 16.300781 28.828125 16.875 28.460938 Z M 36.523438 20.511719 L 20.332031 30.207031 C 19.777344 30.554688 19.570312 31.015625 19.59375 31.453125 C 19.570312 31.914062 19.78125 32.371094 20.332031 32.71875 L 36.523438 42.414062 L 37.535156 42.664062 C 37.722656 42.664062 37.902344 42.640625 38.089844 42.570312 L 54.671875 32.714844 C 55.222656 32.371094 55.429688 31.910156 55.40625 31.449219 C 55.429688 31.011719 55.222656 30.550781 54.671875 30.207031 L 38.089844 20.324219 C 37.902344 20.28125 37.722656 20.257812 37.535156 20.257812 Z M 24.152344 31.453125 L 50.847656 31.453125 L 37.511719 39.445312 Z M 24.152344 31.453125 " fill-opacity="1" fill-rule="evenodd"/></svg>