<svg xmlns="http://www.w3.org/2000/svg" xmlns:xlink="http://www.w3.org/1999/xlink" width="100" zoomAndPan="magnify" viewBox="0 0 75 74.999997" height="100" preserveAspectRatio="xMidYMid meet" version="1.0"><defs><clipPath id="fb5aeed749"><path d="M 3.976562 3.976562 L 70.726562 3.976562 L 70.726562 70.726562 L 3.976562 70.726562 Z M 3.976562 3.976562 " clip-rule="nonzero"/></clipPath></defs><g clip-path="url(#fb5aeed749)"><path fill="#2ecc40" d="M 71.03125 37.503906 C 71.03125 56.023438 56.023438 71.03125 37.503906 71.03125 C 18.988281 71.03125 3.976562 56.023438 3.976562 37.503906 C 3.976562 18.988281 18.988281 3.976562 37.503906 3.976562 C 56.023438 3.976562 71.03125 18.988281 71.03125 37.503906 " fill-opacity="1" fill-rule="nonzero"/></g><path fill="#ffffff" d="M 39.4375 39.4375 L 39.4375 52.011719 L 35.574219 52.011719 L 35.574219 39.4375 L 22.996094 39.4375 L 22.996094 35.570312 L 35.574219 35.570312 L 35.574219 22.996094 L 39.4375 22.996094 L 39.4375 35.570312 L 52.011719 35.570312 L 52.011719 39.4375 L 39.4375 39.4375 " fill-opacity="1" fill-rule="nonzero"/></svg>